<svg width="1400" height="76" viewBox="0 0 1400 76" fill="none" xmlns="http://www.w3.org/2000/svg">
<rect width="1400" height="76" fill="#0A61F7"/>
<path d="M224.651 46.9525C222.938 46.9525 221.386 46.5834 219.993 45.8453C218.617 45.0912 217.529 44.0562 216.728 42.7404C215.944 41.4086 215.552 39.9084 215.552 38.2396C215.552 36.5708 215.944 35.0786 216.728 33.7628C217.529 32.431 218.617 31.3961 219.993 30.658C221.386 29.9038 222.946 29.5267 224.675 29.5267C226.132 29.5267 227.444 29.7835 228.612 30.2969C229.797 30.8104 230.789 31.5485 231.59 32.5113L229.093 34.8218C227.956 33.5061 226.548 32.8482 224.867 32.8482C223.827 32.8482 222.898 33.0809 222.082 33.5462C221.266 33.9955 220.626 34.6293 220.161 35.4476C219.713 36.266 219.489 37.1966 219.489 38.2396C219.489 39.2826 219.713 40.2132 220.161 41.0316C220.626 41.8499 221.266 42.4917 222.082 42.9571C222.898 43.4063 223.827 43.631 224.867 43.631C226.548 43.631 227.956 42.9651 229.093 41.6333L231.59 43.9439C230.789 44.9227 229.797 45.6688 228.612 46.1823C227.428 46.6957 226.108 46.9525 224.651 46.9525Z" fill="white"/>
<path d="M241.542 46.9525C239.141 46.9525 237.268 46.2866 235.924 44.9548C234.596 43.623 233.931 41.7215 233.931 39.2505V29.8156H237.821V39.1061C237.821 42.1227 239.069 43.631 241.566 43.631C242.782 43.631 243.711 43.27 244.351 42.5479C244.991 41.8098 245.311 40.6625 245.311 39.1061V29.8156H249.153V39.2505C249.153 41.7215 248.48 43.623 247.136 44.9548C245.808 46.2866 243.943 46.9525 241.542 46.9525Z" fill="white"/>
<path d="M265.336 37.9026C266.297 38.2075 267.049 38.721 267.593 39.443C268.137 40.149 268.41 41.0235 268.41 42.0665C268.41 43.5427 267.833 44.682 266.681 45.4843C265.545 46.2705 263.88 46.6636 261.687 46.6636H252.996V29.8156H261.207C263.256 29.8156 264.824 30.2087 265.913 30.9949C267.017 31.7812 267.569 32.8482 267.569 34.1961C267.569 35.0144 267.369 35.7445 266.969 36.3863C266.585 37.0281 266.041 37.5336 265.336 37.9026ZM256.861 32.7519V36.7233H260.727C261.687 36.7233 262.415 36.5548 262.912 36.2178C263.408 35.8809 263.656 35.3834 263.656 34.7256C263.656 34.0677 263.408 33.5783 262.912 33.2574C262.415 32.9204 261.687 32.7519 260.727 32.7519H256.861ZM261.399 43.7273C262.423 43.7273 263.192 43.5588 263.704 43.2218C264.232 42.8849 264.496 42.3634 264.496 41.6574C264.496 40.2614 263.464 39.5634 261.399 39.5634H256.861V43.7273H261.399Z" fill="white"/>
<path d="M282.422 43.0533H274.619L273.131 46.6636H269.145L276.636 29.8156H280.477L287.992 46.6636H283.911L282.422 43.0533ZM281.198 40.0929L278.533 33.6425L275.868 40.0929H281.198Z" fill="white"/>
<path d="M292.373 32.9926H286.995V29.8156H301.64V32.9926H296.262V46.6636H292.373V32.9926Z" fill="white"/>
<path d="M311.637 46.9525C309.893 46.9525 308.316 46.5754 306.908 45.8212C305.515 45.0671 304.419 44.0321 303.618 42.7164C302.834 41.3846 302.442 39.8923 302.442 38.2396C302.442 36.5869 302.834 35.1026 303.618 33.7869C304.419 32.4551 305.515 31.4121 306.908 30.658C308.316 29.9038 309.893 29.5267 311.637 29.5267C313.382 29.5267 314.95 29.9038 316.343 30.658C317.735 31.4121 318.832 32.4551 319.632 33.7869C320.432 35.1026 320.833 36.5869 320.833 38.2396C320.833 39.8923 320.432 41.3846 319.632 42.7164C318.832 44.0321 317.735 45.0671 316.343 45.8212C314.95 46.5754 313.382 46.9525 311.637 46.9525ZM311.637 43.631C312.63 43.631 313.526 43.4063 314.326 42.9571C315.127 42.4917 315.751 41.8499 316.199 41.0316C316.663 40.2132 316.895 39.2826 316.895 38.2396C316.895 37.1966 316.663 36.266 316.199 35.4476C315.751 34.6293 315.127 33.9955 314.326 33.5462C313.526 33.0809 312.63 32.8482 311.637 32.8482C310.645 32.8482 309.749 33.0809 308.948 33.5462C308.148 33.9955 307.516 34.6293 307.052 35.4476C306.604 36.266 306.379 37.1966 306.379 38.2396C306.379 39.2826 306.604 40.2132 307.052 41.0316C307.516 41.8499 308.148 42.4917 308.948 42.9571C309.749 43.4063 310.645 43.631 311.637 43.631Z" fill="white"/>
<path d="M334.463 46.6636L331.222 41.9702H331.03H327.645V46.6636H323.756V29.8156H331.03C332.519 29.8156 333.807 30.0643 334.896 30.5617C336 31.0591 336.848 31.7651 337.44 32.6797C338.033 33.5943 338.329 34.6774 338.329 35.929C338.329 37.1806 338.025 38.2637 337.416 39.1783C336.824 40.0768 335.976 40.7668 334.872 41.2482L338.641 46.6636H334.463ZM334.391 35.929C334.391 34.9823 334.087 34.2602 333.479 33.7628C332.871 33.2494 331.983 32.9926 330.814 32.9926H327.645V38.8654H330.814C331.983 38.8654 332.871 38.6087 333.479 38.0952C334.087 37.5817 334.391 36.8597 334.391 35.929Z" fill="white"/>
<path d="M130 29.8413H133.883V46.6334H130V29.8413Z" fill="white"/>
<path d="M141.341 33.0078H135.972V29.8413H150.594V33.0078H145.225V46.6334H141.341V33.0078Z" fill="white"/>
<path d="M174.988 29.8413H178.876V46.6334H174.988V29.8413Z" fill="white"/>
<path d="M198.275 29.8413V46.6334H195.082L186.705 36.4382V46.6334H182.864V29.8413H186.081L194.434 40.0365V29.8413H198.275Z" fill="white"/>
<path fill-rule="evenodd" clip-rule="evenodd" d="M176.649 22.7113C178.093 22.7113 179.263 23.8817 179.263 25.3252C179.263 26.7686 178.093 27.939 176.649 27.939C175.206 27.939 174.035 26.7686 174.035 25.3252C174.035 23.8817 175.206 22.7113 176.649 22.7113Z" fill="#FF0808"/>
<path fill-rule="evenodd" clip-rule="evenodd" d="M155.99 35.3861C157.477 35.3861 158.683 36.5562 158.683 38C158.683 39.4438 157.477 40.6138 155.99 40.6138C154.502 40.6138 153.297 39.4438 153.297 38C153.297 36.5562 154.502 35.3861 155.99 35.3861Z" fill="white"/>
<path fill-rule="evenodd" clip-rule="evenodd" d="M186.637 60C198.788 60 208.637 50.1503 208.637 38C208.637 25.8497 198.788 16 186.637 16C174.487 16 164.637 25.8497 164.637 38C164.637 50.1503 174.487 60 186.637 60ZM186.637 62C199.892 62 210.637 51.2548 210.637 38C210.637 24.7452 199.892 14 186.637 14C173.382 14 162.637 24.7452 162.637 38C162.637 51.2548 173.382 62 186.637 62Z" fill="white"/>
<path d="M1150.43 42.12C1149.68 42.12 1149.05 41.992 1148.53 41.736C1148.02 41.472 1147.63 41.1 1147.35 40.62C1147.08 40.132 1146.93 39.548 1146.9 38.868C1146.89 38.54 1146.89 38.188 1146.89 37.812C1146.89 37.436 1146.89 37.076 1146.9 36.732C1146.93 36.06 1147.08 35.48 1147.35 34.992C1147.63 34.504 1148.03 34.132 1148.54 33.876C1149.06 33.612 1149.69 33.48 1150.43 33.48C1150.97 33.48 1151.46 33.552 1151.89 33.696C1152.32 33.84 1152.69 34.04 1152.99 34.296C1153.3 34.544 1153.53 34.836 1153.7 35.172C1153.87 35.508 1153.96 35.872 1153.97 36.264C1153.97 36.336 1153.95 36.396 1153.89 36.444C1153.85 36.492 1153.79 36.516 1153.71 36.516H1152.57C1152.49 36.516 1152.41 36.496 1152.36 36.456C1152.3 36.408 1152.26 36.332 1152.24 36.228C1152.11 35.7 1151.89 35.34 1151.58 35.148C1151.27 34.956 1150.88 34.86 1150.41 34.86C1149.88 34.86 1149.45 35.012 1149.13 35.316C1148.81 35.612 1148.64 36.104 1148.61 36.792C1148.59 37.448 1148.59 38.12 1148.61 38.808C1148.64 39.496 1148.81 39.992 1149.13 40.296C1149.45 40.592 1149.88 40.74 1150.41 40.74C1150.88 40.74 1151.27 40.644 1151.58 40.452C1151.89 40.252 1152.11 39.892 1152.24 39.372C1152.26 39.26 1152.3 39.184 1152.36 39.144C1152.41 39.104 1152.49 39.084 1152.57 39.084H1153.71C1153.79 39.084 1153.85 39.108 1153.89 39.156C1153.95 39.204 1153.97 39.264 1153.97 39.336C1153.96 39.728 1153.87 40.092 1153.7 40.428C1153.53 40.764 1153.3 41.06 1152.99 41.316C1152.69 41.564 1152.32 41.76 1151.89 41.904C1151.46 42.048 1150.97 42.12 1150.43 42.12ZM1157.08 42C1157 42 1156.93 41.972 1156.87 41.916C1156.82 41.86 1156.79 41.792 1156.79 41.712V33.9C1156.79 33.812 1156.82 33.74 1156.87 33.684C1156.93 33.628 1157 33.6 1157.08 33.6H1160.18C1161.15 33.6 1161.92 33.824 1162.48 34.272C1163.04 34.72 1163.32 35.372 1163.32 36.228C1163.32 36.82 1163.17 37.312 1162.87 37.704C1162.58 38.096 1162.2 38.38 1161.71 38.556L1163.46 41.616C1163.48 41.664 1163.5 41.708 1163.5 41.748C1163.5 41.82 1163.47 41.88 1163.41 41.928C1163.36 41.976 1163.31 42 1163.24 42H1162.15C1162.02 42 1161.91 41.964 1161.84 41.892C1161.77 41.82 1161.71 41.748 1161.67 41.676L1160.12 38.832H1158.46V41.712C1158.46 41.792 1158.43 41.86 1158.37 41.916C1158.32 41.972 1158.26 42 1158.17 42H1157.08ZM1158.46 37.476H1160.15C1160.64 37.476 1161 37.368 1161.24 37.152C1161.48 36.928 1161.6 36.616 1161.6 36.216C1161.6 35.816 1161.48 35.504 1161.24 35.28C1161.01 35.048 1160.64 34.932 1160.15 34.932H1158.46V37.476ZM1166.55 42C1166.47 42 1166.4 41.972 1166.35 41.916C1166.29 41.86 1166.26 41.792 1166.26 41.712V33.9C1166.26 33.812 1166.29 33.74 1166.35 33.684C1166.4 33.628 1166.47 33.6 1166.55 33.6H1171.83C1171.92 33.6 1171.99 33.628 1172.05 33.684C1172.1 33.74 1172.13 33.812 1172.13 33.9V34.692C1172.13 34.772 1172.1 34.84 1172.05 34.896C1171.99 34.952 1171.92 34.98 1171.83 34.98H1167.88V37.104H1171.57C1171.65 37.104 1171.73 37.132 1171.78 37.188C1171.84 37.236 1171.87 37.304 1171.87 37.392V38.136C1171.87 38.224 1171.84 38.296 1171.78 38.352C1171.73 38.4 1171.65 38.424 1171.57 38.424H1167.88V40.62H1171.93C1172.01 40.62 1172.09 40.648 1172.14 40.704C1172.2 40.76 1172.23 40.832 1172.23 40.92V41.712C1172.23 41.792 1172.2 41.86 1172.14 41.916C1172.09 41.972 1172.01 42 1171.93 42H1166.55ZM1174.61 42C1174.55 42 1174.49 41.976 1174.43 41.928C1174.38 41.88 1174.36 41.82 1174.36 41.748C1174.36 41.716 1174.37 41.68 1174.38 41.64L1177.28 33.9C1177.3 33.82 1177.34 33.752 1177.41 33.696C1177.48 33.632 1177.58 33.6 1177.7 33.6H1179C1179.12 33.6 1179.22 33.632 1179.28 33.696C1179.34 33.752 1179.39 33.82 1179.42 33.9L1182.32 41.64C1182.32 41.68 1182.33 41.716 1182.33 41.748C1182.33 41.82 1182.3 41.88 1182.26 41.928C1182.21 41.976 1182.15 42 1182.09 42H1181.04C1180.93 42 1180.85 41.976 1180.79 41.928C1180.74 41.872 1180.71 41.82 1180.7 41.772L1180.13 40.308H1176.57L1176 41.772C1175.99 41.82 1175.95 41.872 1175.9 41.928C1175.85 41.976 1175.77 42 1175.66 42H1174.61ZM1176.99 38.928H1179.71L1178.34 35.22L1176.99 38.928ZM1186.1 42C1186.02 42 1185.96 41.972 1185.9 41.916C1185.84 41.86 1185.82 41.792 1185.82 41.712V35.076H1183.6C1183.52 35.076 1183.45 35.048 1183.39 34.992C1183.34 34.936 1183.31 34.868 1183.31 34.788V33.9C1183.31 33.812 1183.34 33.74 1183.39 33.684C1183.45 33.628 1183.52 33.6 1183.6 33.6H1189.72C1189.8 33.6 1189.88 33.628 1189.93 33.684C1189.99 33.74 1190.02 33.812 1190.02 33.9V34.788C1190.02 34.868 1189.99 34.936 1189.93 34.992C1189.88 35.048 1189.8 35.076 1189.72 35.076H1187.51V41.712C1187.51 41.792 1187.48 41.86 1187.42 41.916C1187.37 41.972 1187.3 42 1187.21 42H1186.1ZM1192.92 42C1192.84 42 1192.77 41.972 1192.72 41.916C1192.66 41.86 1192.63 41.792 1192.63 41.712V33.9C1192.63 33.812 1192.66 33.74 1192.72 33.684C1192.77 33.628 1192.84 33.6 1192.92 33.6H1198.2C1198.29 33.6 1198.36 33.628 1198.42 33.684C1198.47 33.74 1198.5 33.812 1198.5 33.9V34.692C1198.5 34.772 1198.47 34.84 1198.42 34.896C1198.36 34.952 1198.29 34.98 1198.2 34.98H1194.25V37.104H1197.94C1198.03 37.104 1198.1 37.132 1198.15 37.188C1198.21 37.236 1198.24 37.304 1198.24 37.392V38.136C1198.24 38.224 1198.21 38.296 1198.15 38.352C1198.1 38.4 1198.03 38.424 1197.94 38.424H1194.25V40.62H1198.3C1198.39 40.62 1198.46 40.648 1198.51 40.704C1198.57 40.76 1198.6 40.832 1198.6 40.92V41.712C1198.6 41.792 1198.57 41.86 1198.51 41.916C1198.46 41.972 1198.39 42 1198.3 42H1192.92ZM1204.81 42C1204.75 42 1204.69 41.976 1204.63 41.928C1204.58 41.88 1204.56 41.82 1204.56 41.748C1204.56 41.716 1204.57 41.68 1204.58 41.64L1207.47 33.9C1207.5 33.82 1207.54 33.752 1207.61 33.696C1207.68 33.632 1207.77 33.6 1207.89 33.6H1209.2C1209.32 33.6 1209.41 33.632 1209.48 33.696C1209.54 33.752 1209.59 33.82 1209.62 33.9L1212.51 41.64C1212.52 41.68 1212.53 41.716 1212.53 41.748C1212.53 41.82 1212.5 41.88 1212.45 41.928C1212.41 41.976 1212.35 42 1212.29 42H1211.24C1211.13 42 1211.05 41.976 1210.99 41.928C1210.94 41.872 1210.91 41.82 1210.89 41.772L1210.33 40.308H1206.77L1206.2 41.772C1206.19 41.82 1206.15 41.872 1206.09 41.928C1206.05 41.976 1205.97 42 1205.85 42H1204.81ZM1207.19 38.928H1209.91L1208.54 35.22L1207.19 38.928ZM1218.12 42.12C1217.38 42.12 1216.75 41.992 1216.23 41.736C1215.71 41.472 1215.32 41.1 1215.05 40.62C1214.78 40.132 1214.63 39.548 1214.59 38.868C1214.59 38.54 1214.58 38.188 1214.58 37.812C1214.58 37.436 1214.59 37.076 1214.59 36.732C1214.63 36.06 1214.78 35.48 1215.05 34.992C1215.33 34.504 1215.73 34.132 1216.24 33.876C1216.76 33.612 1217.39 33.48 1218.12 33.48C1218.67 33.48 1219.15 33.552 1219.59 33.696C1220.02 33.84 1220.39 34.04 1220.69 34.296C1220.99 34.544 1221.23 34.836 1221.4 35.172C1221.57 35.508 1221.65 35.872 1221.66 36.264C1221.67 36.336 1221.65 36.396 1221.59 36.444C1221.54 36.492 1221.48 36.516 1221.41 36.516H1220.27C1220.18 36.516 1220.11 36.496 1220.05 36.456C1220 36.408 1219.96 36.332 1219.93 36.228C1219.81 35.7 1219.59 35.34 1219.27 35.148C1218.96 34.956 1218.57 34.86 1218.11 34.86C1217.57 34.86 1217.15 35.012 1216.83 35.316C1216.51 35.612 1216.33 36.104 1216.31 36.792C1216.29 37.448 1216.29 38.12 1216.31 38.808C1216.33 39.496 1216.51 39.992 1216.83 40.296C1217.15 40.592 1217.57 40.74 1218.11 40.74C1218.57 40.74 1218.96 40.644 1219.27 40.452C1219.59 40.252 1219.81 39.892 1219.93 39.372C1219.96 39.26 1220 39.184 1220.05 39.144C1220.11 39.104 1220.18 39.084 1220.27 39.084H1221.41C1221.48 39.084 1221.54 39.108 1221.59 39.156C1221.65 39.204 1221.67 39.264 1221.66 39.336C1221.65 39.728 1221.57 40.092 1221.4 40.428C1221.23 40.764 1220.99 41.06 1220.69 41.316C1220.39 41.564 1220.02 41.76 1219.59 41.904C1219.15 42.048 1218.67 42.12 1218.12 42.12ZM1227.72 42.12C1226.98 42.12 1226.35 41.992 1225.83 41.736C1225.32 41.472 1224.92 41.1 1224.65 40.62C1224.38 40.132 1224.23 39.548 1224.2 38.868C1224.19 38.54 1224.18 38.188 1224.18 37.812C1224.18 37.436 1224.19 37.076 1224.2 36.732C1224.23 36.06 1224.38 35.48 1224.65 34.992C1224.93 34.504 1225.33 34.132 1225.84 33.876C1226.36 33.612 1226.99 33.48 1227.72 33.48C1228.27 33.48 1228.76 33.552 1229.19 33.696C1229.62 33.84 1229.99 34.04 1230.29 34.296C1230.6 34.544 1230.83 34.836 1231 35.172C1231.17 35.508 1231.26 35.872 1231.26 36.264C1231.27 36.336 1231.25 36.396 1231.19 36.444C1231.14 36.492 1231.08 36.516 1231.01 36.516H1229.87C1229.78 36.516 1229.71 36.496 1229.66 36.456C1229.6 36.408 1229.56 36.332 1229.54 36.228C1229.41 35.7 1229.19 35.34 1228.88 35.148C1228.56 34.956 1228.18 34.86 1227.71 34.86C1227.18 34.86 1226.75 35.012 1226.43 35.316C1226.11 35.612 1225.94 36.104 1225.91 36.792C1225.89 37.448 1225.89 38.12 1225.91 38.808C1225.94 39.496 1226.11 39.992 1226.43 40.296C1226.75 40.592 1227.18 40.74 1227.71 40.74C1228.18 40.74 1228.56 40.644 1228.88 40.452C1229.19 40.252 1229.41 39.892 1229.54 39.372C1229.56 39.26 1229.6 39.184 1229.66 39.144C1229.71 39.104 1229.78 39.084 1229.87 39.084H1231.01C1231.08 39.084 1231.14 39.108 1231.19 39.156C1231.25 39.204 1231.27 39.264 1231.26 39.336C1231.26 39.728 1231.17 40.092 1231 40.428C1230.83 40.764 1230.6 41.06 1230.29 41.316C1229.99 41.564 1229.62 41.76 1229.19 41.904C1228.76 42.048 1228.27 42.12 1227.72 42.12ZM1237.32 42.12C1236.6 42.12 1235.99 42.004 1235.48 41.772C1234.97 41.532 1234.57 41.168 1234.28 40.68C1233.99 40.184 1233.84 39.568 1233.81 38.832C1233.8 38.488 1233.8 38.148 1233.8 37.812C1233.8 37.476 1233.8 37.132 1233.81 36.78C1233.84 36.052 1234 35.444 1234.29 34.956C1234.59 34.468 1234.99 34.1 1235.5 33.852C1236.02 33.604 1236.63 33.48 1237.32 33.48C1238 33.48 1238.61 33.604 1239.13 33.852C1239.65 34.1 1240.06 34.468 1240.35 34.956C1240.65 35.444 1240.81 36.052 1240.83 36.78C1240.85 37.132 1240.86 37.476 1240.86 37.812C1240.86 38.148 1240.85 38.488 1240.83 38.832C1240.81 39.568 1240.65 40.184 1240.36 40.68C1240.08 41.168 1239.67 41.532 1239.15 41.772C1238.64 42.004 1238.03 42.12 1237.32 42.12ZM1237.32 40.74C1237.84 40.74 1238.26 40.588 1238.59 40.284C1238.92 39.972 1239.09 39.468 1239.12 38.772C1239.13 38.42 1239.14 38.096 1239.14 37.8C1239.14 37.496 1239.13 37.172 1239.12 36.828C1239.1 36.364 1239.01 35.988 1238.85 35.7C1238.7 35.404 1238.49 35.192 1238.23 35.064C1237.96 34.928 1237.66 34.86 1237.32 34.86C1236.98 34.86 1236.68 34.928 1236.42 35.064C1236.15 35.192 1235.94 35.404 1235.78 35.7C1235.63 35.988 1235.54 36.364 1235.53 36.828C1235.52 37.172 1235.52 37.496 1235.52 37.8C1235.52 38.096 1235.52 38.42 1235.53 38.772C1235.55 39.468 1235.73 39.972 1236.06 40.284C1236.38 40.588 1236.8 40.74 1237.32 40.74ZM1247.18 42.12C1246.48 42.12 1245.88 42.004 1245.37 41.772C1244.86 41.532 1244.46 41.168 1244.18 40.68C1243.9 40.184 1243.76 39.552 1243.76 38.784V33.9C1243.76 33.812 1243.79 33.74 1243.84 33.684C1243.9 33.628 1243.97 33.6 1244.05 33.6H1245.14C1245.23 33.6 1245.3 33.628 1245.34 33.684C1245.4 33.74 1245.43 33.812 1245.43 33.9V38.784C1245.43 39.44 1245.58 39.928 1245.9 40.248C1246.21 40.56 1246.64 40.716 1247.18 40.716C1247.72 40.716 1248.15 40.56 1248.45 40.248C1248.76 39.928 1248.92 39.44 1248.92 38.784V33.9C1248.92 33.812 1248.95 33.74 1249 33.684C1249.06 33.628 1249.13 33.6 1249.22 33.6H1250.3C1250.39 33.6 1250.46 33.628 1250.5 33.684C1250.56 33.74 1250.59 33.812 1250.59 33.9V38.784C1250.59 39.552 1250.45 40.184 1250.17 40.68C1249.9 41.168 1249.5 41.532 1248.99 41.772C1248.49 42.004 1247.88 42.12 1247.18 42.12ZM1254.07 42C1253.99 42 1253.93 41.972 1253.87 41.916C1253.81 41.86 1253.79 41.792 1253.79 41.712V33.9C1253.79 33.812 1253.81 33.74 1253.87 33.684C1253.93 33.628 1253.99 33.6 1254.07 33.6H1255C1255.11 33.6 1255.19 33.628 1255.24 33.684C1255.29 33.732 1255.33 33.768 1255.35 33.792L1258.8 39.168V33.9C1258.8 33.812 1258.83 33.74 1258.87 33.684C1258.93 33.628 1259 33.6 1259.09 33.6H1260.1C1260.19 33.6 1260.26 33.628 1260.31 33.684C1260.37 33.74 1260.4 33.812 1260.4 33.9V41.7C1260.4 41.788 1260.37 41.86 1260.31 41.916C1260.26 41.972 1260.19 42 1260.11 42H1259.17C1259.06 42 1258.98 41.972 1258.93 41.916C1258.89 41.86 1258.85 41.824 1258.83 41.808L1255.38 36.552V41.712C1255.38 41.792 1255.35 41.86 1255.3 41.916C1255.24 41.972 1255.17 42 1255.08 42H1254.07ZM1265.81 42C1265.73 42 1265.66 41.972 1265.6 41.916C1265.55 41.86 1265.52 41.792 1265.52 41.712V35.076H1263.3C1263.22 35.076 1263.15 35.048 1263.09 34.992C1263.04 34.936 1263.01 34.868 1263.01 34.788V33.9C1263.01 33.812 1263.04 33.74 1263.09 33.684C1263.15 33.628 1263.22 33.6 1263.3 33.6H1269.42C1269.51 33.6 1269.58 33.628 1269.63 33.684C1269.69 33.74 1269.72 33.812 1269.72 33.9V34.788C1269.72 34.868 1269.69 34.936 1269.63 34.992C1269.58 35.048 1269.51 35.076 1269.42 35.076H1267.21V41.712C1267.21 41.792 1267.18 41.86 1267.13 41.916C1267.07 41.972 1267 42 1266.91 42H1265.81Z" fill="white"/>
<path d="M1079.68 42C1079.6 42 1079.53 41.972 1079.47 41.916C1079.42 41.86 1079.39 41.792 1079.39 41.712V33.9C1079.39 33.812 1079.42 33.74 1079.47 33.684C1079.53 33.628 1079.6 33.6 1079.68 33.6H1082.79C1083.75 33.6 1084.52 33.824 1085.08 34.272C1085.64 34.72 1085.92 35.372 1085.92 36.228C1085.92 36.82 1085.77 37.312 1085.47 37.704C1085.19 38.096 1084.8 38.38 1084.31 38.556L1086.06 41.616C1086.09 41.664 1086.1 41.708 1086.1 41.748C1086.1 41.82 1086.07 41.88 1086.01 41.928C1085.97 41.976 1085.91 42 1085.85 42H1084.75C1084.62 42 1084.51 41.964 1084.44 41.892C1084.37 41.82 1084.31 41.748 1084.27 41.676L1082.73 38.832H1081.06V41.712C1081.06 41.792 1081.03 41.86 1080.97 41.916C1080.93 41.972 1080.86 42 1080.77 42H1079.68ZM1081.06 37.476H1082.75C1083.24 37.476 1083.6 37.368 1083.84 37.152C1084.08 36.928 1084.2 36.616 1084.2 36.216C1084.2 35.816 1084.08 35.504 1083.84 35.28C1083.61 35.048 1083.25 34.932 1082.75 34.932H1081.06V37.476ZM1088.35 42C1088.28 42 1088.22 41.976 1088.17 41.928C1088.12 41.88 1088.1 41.82 1088.1 41.748C1088.1 41.716 1088.1 41.68 1088.12 41.64L1091.01 33.9C1091.04 33.82 1091.08 33.752 1091.14 33.696C1091.22 33.632 1091.31 33.6 1091.43 33.6H1092.74C1092.86 33.6 1092.95 33.632 1093.02 33.696C1093.08 33.752 1093.13 33.82 1093.16 33.9L1096.05 41.64C1096.06 41.68 1096.06 41.716 1096.06 41.748C1096.06 41.82 1096.04 41.88 1095.99 41.928C1095.94 41.976 1095.89 42 1095.82 42H1094.78C1094.67 42 1094.58 41.976 1094.53 41.928C1094.48 41.872 1094.45 41.82 1094.43 41.772L1093.87 40.308H1090.3L1089.74 41.772C1089.72 41.82 1089.69 41.872 1089.63 41.928C1089.58 41.976 1089.5 42 1089.39 42H1088.35ZM1090.72 38.928H1093.45L1092.08 35.22L1090.72 38.928ZM1099.84 42C1099.76 42 1099.69 41.972 1099.64 41.916C1099.58 41.86 1099.55 41.792 1099.55 41.712V35.076H1097.33C1097.25 35.076 1097.19 35.048 1097.13 34.992C1097.07 34.936 1097.05 34.868 1097.05 34.788V33.9C1097.05 33.812 1097.07 33.74 1097.13 33.684C1097.19 33.628 1097.25 33.6 1097.33 33.6H1103.45C1103.54 33.6 1103.61 33.628 1103.67 33.684C1103.73 33.74 1103.75 33.812 1103.75 33.9V34.788C1103.75 34.868 1103.73 34.936 1103.67 34.992C1103.61 35.048 1103.54 35.076 1103.45 35.076H1101.25V41.712C1101.25 41.792 1101.22 41.86 1101.16 41.916C1101.11 41.972 1101.03 42 1100.95 42H1099.84ZM1106.66 42C1106.58 42 1106.51 41.972 1106.46 41.916C1106.4 41.86 1106.37 41.792 1106.37 41.712V33.9C1106.37 33.812 1106.4 33.74 1106.46 33.684C1106.51 33.628 1106.58 33.6 1106.66 33.6H1111.94C1112.03 33.6 1112.1 33.628 1112.16 33.684C1112.21 33.74 1112.24 33.812 1112.24 33.9V34.692C1112.24 34.772 1112.21 34.84 1112.16 34.896C1112.1 34.952 1112.03 34.98 1111.94 34.98H1107.99V37.104H1111.68C1111.76 37.104 1111.84 37.132 1111.89 37.188C1111.95 37.236 1111.98 37.304 1111.98 37.392V38.136C1111.98 38.224 1111.95 38.296 1111.89 38.352C1111.84 38.4 1111.76 38.424 1111.68 38.424H1107.99V40.62H1112.04C1112.12 40.62 1112.2 40.648 1112.25 40.704C1112.31 40.76 1112.34 40.832 1112.34 40.92V41.712C1112.34 41.792 1112.31 41.86 1112.25 41.916C1112.2 41.972 1112.12 42 1112.04 42H1106.66ZM1118.15 42.12C1117.41 42.12 1116.78 42.012 1116.28 41.796C1115.78 41.572 1115.4 41.284 1115.14 40.932C1114.88 40.572 1114.75 40.196 1114.73 39.804C1114.73 39.732 1114.76 39.672 1114.8 39.624C1114.85 39.576 1114.91 39.552 1114.98 39.552H1116.05C1116.16 39.552 1116.23 39.576 1116.28 39.624C1116.34 39.664 1116.38 39.716 1116.42 39.78C1116.47 39.932 1116.56 40.084 1116.7 40.236C1116.84 40.38 1117.02 40.5 1117.25 40.596C1117.49 40.692 1117.79 40.74 1118.15 40.74C1118.73 40.74 1119.16 40.644 1119.44 40.452C1119.72 40.26 1119.87 40 1119.87 39.672C1119.87 39.44 1119.79 39.256 1119.64 39.12C1119.49 38.976 1119.25 38.848 1118.93 38.736C1118.62 38.616 1118.2 38.492 1117.68 38.364C1117.08 38.22 1116.58 38.048 1116.17 37.848C1115.77 37.64 1115.47 37.38 1115.26 37.068C1115.06 36.756 1114.96 36.36 1114.96 35.88C1114.96 35.416 1115.08 35.004 1115.33 34.644C1115.59 34.284 1115.95 34 1116.41 33.792C1116.88 33.584 1117.44 33.48 1118.09 33.48C1118.61 33.48 1119.07 33.552 1119.47 33.696C1119.87 33.832 1120.2 34.016 1120.47 34.248C1120.73 34.472 1120.93 34.716 1121.07 34.98C1121.21 35.236 1121.29 35.488 1121.3 35.736C1121.3 35.8 1121.27 35.86 1121.22 35.916C1121.18 35.964 1121.12 35.988 1121.04 35.988H1119.93C1119.86 35.988 1119.8 35.972 1119.74 35.94C1119.67 35.908 1119.62 35.848 1119.58 35.76C1119.53 35.512 1119.38 35.3 1119.11 35.124C1118.85 34.948 1118.51 34.86 1118.09 34.86C1117.66 34.86 1117.31 34.94 1117.05 35.1C1116.78 35.26 1116.65 35.508 1116.65 35.844C1116.65 36.068 1116.72 36.256 1116.84 36.408C1116.98 36.552 1117.19 36.68 1117.48 36.792C1117.78 36.904 1118.16 37.024 1118.64 37.152C1119.32 37.304 1119.88 37.48 1120.31 37.68C1120.74 37.88 1121.06 38.136 1121.26 38.448C1121.46 38.752 1121.56 39.14 1121.56 39.612C1121.56 40.14 1121.42 40.592 1121.13 40.968C1120.85 41.336 1120.45 41.62 1119.94 41.82C1119.43 42.02 1118.83 42.12 1118.15 42.12Z" fill="white"/>
<path d="M1020.92 42C1020.83 42 1020.76 41.972 1020.7 41.916C1020.65 41.86 1020.62 41.792 1020.62 41.712V33.9C1020.62 33.812 1020.65 33.74 1020.7 33.684C1020.76 33.628 1020.83 33.6 1020.92 33.6H1021.87C1021.98 33.6 1022.06 33.632 1022.12 33.696C1022.17 33.752 1022.21 33.796 1022.23 33.828L1024.54 38.148L1026.88 33.828C1026.9 33.796 1026.93 33.752 1026.99 33.696C1027.05 33.632 1027.13 33.6 1027.24 33.6H1028.18C1028.27 33.6 1028.34 33.628 1028.39 33.684C1028.45 33.74 1028.48 33.812 1028.48 33.9V41.712C1028.48 41.792 1028.45 41.86 1028.39 41.916C1028.34 41.972 1028.27 42 1028.18 42H1027.17C1027.08 42 1027.01 41.972 1026.95 41.916C1026.91 41.86 1026.88 41.792 1026.88 41.712V36.516L1025.2 39.72C1025.16 39.792 1025.11 39.856 1025.05 39.912C1024.98 39.96 1024.9 39.984 1024.79 39.984H1024.3C1024.19 39.984 1024.1 39.96 1024.04 39.912C1023.98 39.856 1023.93 39.792 1023.89 39.72L1022.21 36.516V41.712C1022.21 41.792 1022.19 41.86 1022.13 41.916C1022.07 41.972 1022.01 42 1021.93 42H1020.92ZM1031.23 42C1031.17 42 1031.11 41.976 1031.05 41.928C1031 41.88 1030.98 41.82 1030.98 41.748C1030.98 41.716 1030.99 41.68 1031 41.64L1033.89 33.9C1033.92 33.82 1033.96 33.752 1034.03 33.696C1034.1 33.632 1034.19 33.6 1034.31 33.6H1035.62C1035.74 33.6 1035.83 33.632 1035.9 33.696C1035.96 33.752 1036.01 33.82 1036.04 33.9L1038.93 41.64C1038.94 41.68 1038.95 41.716 1038.95 41.748C1038.95 41.82 1038.92 41.88 1038.87 41.928C1038.83 41.976 1038.77 42 1038.71 42H1037.66C1037.55 42 1037.47 41.976 1037.41 41.928C1037.36 41.872 1037.33 41.82 1037.31 41.772L1036.75 40.308H1033.19L1032.62 41.772C1032.61 41.82 1032.57 41.872 1032.51 41.928C1032.47 41.976 1032.39 42 1032.27 42H1031.23ZM1033.61 38.928H1036.33L1034.96 35.22L1033.61 38.928ZM1041.75 42C1041.67 42 1041.61 41.972 1041.55 41.916C1041.49 41.86 1041.47 41.792 1041.47 41.712V33.888C1041.47 33.808 1041.49 33.74 1041.55 33.684C1041.61 33.628 1041.67 33.6 1041.75 33.6H1042.88C1042.97 33.6 1043.04 33.628 1043.09 33.684C1043.14 33.74 1043.17 33.808 1043.17 33.888V41.712C1043.17 41.792 1043.14 41.86 1043.09 41.916C1043.04 41.972 1042.97 42 1042.88 42H1041.75ZM1046.74 42C1046.66 42 1046.59 41.972 1046.54 41.916C1046.48 41.86 1046.45 41.792 1046.45 41.712V33.9C1046.45 33.812 1046.48 33.74 1046.54 33.684C1046.59 33.628 1046.66 33.6 1046.74 33.6H1047.66C1047.78 33.6 1047.86 33.628 1047.9 33.684C1047.96 33.732 1048 33.768 1048.01 33.792L1051.47 39.168V33.9C1051.47 33.812 1051.49 33.74 1051.54 33.684C1051.6 33.628 1051.67 33.6 1051.76 33.6H1052.76C1052.85 33.6 1052.92 33.628 1052.98 33.684C1053.04 33.74 1053.06 33.812 1053.06 33.9V41.7C1053.06 41.788 1053.04 41.86 1052.98 41.916C1052.92 41.972 1052.86 42 1052.78 42H1051.84C1051.73 42 1051.65 41.972 1051.6 41.916C1051.55 41.86 1051.52 41.824 1051.49 41.808L1048.05 36.552V41.712C1048.05 41.792 1048.02 41.86 1047.96 41.916C1047.91 41.972 1047.84 42 1047.75 42H1046.74Z" fill="white"/>
</svg>
